<?xml version="1.0" encoding="UTF-8" standalone="no"?>
<svg
   version="1.1"
   width="612"
   height="378"
   id="svg1118"
   viewBox="0 0 612 378"
   sodipodi:docname="Alende by Bharat.svg"
   inkscape:export-filename="C:\KRUNAL\OneDrive - ALENDEI PLATFORMS PVT LTD\Digital\Brand\Alendei\Alende by Bharat.png"
   inkscape:export-xdpi="96"
   inkscape:export-ydpi="96"
   inkscape:version="1.1.1 (3bf5ae0d25, 2021-09-20)"
   xmlns:inkscape="http://www.inkscape.org/namespaces/inkscape"
   xmlns:sodipodi="http://sodipodi.sourceforge.net/DTD/sodipodi-0.dtd"
   xmlns="http://www.w3.org/2000/svg"
   xmlns:svg="http://www.w3.org/2000/svg">
  <defs
     id="defs1122" />
  <sodipodi:namedview
     id="namedview1120"
     pagecolor="#ffffff"
     bordercolor="#666666"
     borderopacity="1.0"
     inkscape:pageshadow="2"
     inkscape:pageopacity="0.0"
     inkscape:pagecheckerboard="0"
     showgrid="false"
     height="400px"
     inkscape:zoom="1.7676768"
     inkscape:cx="300.11143"
     inkscape:cy="350.74286"
     inkscape:window-width="2736"
     inkscape:window-height="1700"
     inkscape:window-x="-12"
     inkscape:window-y="-12"
     inkscape:window-maximized="1"
     inkscape:current-layer="svg1118" />
  <g
     id="Layer1000"
     transform="translate(0,-206)">
    <path
       d="m 50.9031,459.0703 v -33.4562 h -5.7863 v -5.0445 h 5.7863 v -4.0799 c 0,-2.5841 0.2226,-4.5006 0.6801,-5.7493 0.6304,-1.6815 1.7183,-3.0537 3.3009,-4.1048 1.5704,-1.0508 3.7834,-1.5701 6.6271,-1.5701 1.8423,0 3.8699,0.2225 6.0954,0.6554 l -0.9768,5.712 c -1.3601,-0.2349 -2.6334,-0.3585 -3.8452,-0.3585 -1.978,0 -3.3752,0.4203 -4.2035,1.2611 -0.8161,0.8408 -1.224,2.4109 -1.224,4.7106 v 3.5235 h 7.4922 v 5.0445 h -7.4182 v 33.4562 z m 18.9783,0 v -38.5007 h 5.8606 v 5.8975 c 1.4959,-2.7324 2.8806,-4.5375 4.1542,-5.4029 1.2733,-0.8779 2.6705,-1.3104 4.1913,-1.3104 2.2008,0 4.4385,0.6922 6.7136,2.0644 l -2.3244,6.0214 c -1.5826,-0.8904 -3.1652,-1.3354 -4.7478,-1.3354 -1.4218,0 -2.6952,0.4328 -3.8205,1.2858 -1.1251,0.8532 -1.9287,2.0401 -2.4109,3.5609 -0.7293,2.3119 -1.0879,4.8464 -1.0879,7.6036 v 20.1158 z m 22.3291,-19.2504 c 0,-7.109 1.9783,-12.376 5.947,-15.8008 3.301,-2.8438 7.344,-4.2653 12.104,-4.2653 5.2792,0 9.6066,1.7308 12.9696,5.1925 3.3506,3.4494 5.0321,8.2343 5.0321,14.3297 0,4.9456 -0.7418,8.8276 -2.2255,11.6589 -1.4837,2.8315 -3.6473,5.032 -6.4911,6.6024 -2.8312,1.5701 -5.9346,2.3491 -9.2851,2.3491 -5.3907,0 -9.7427,-1.7187 -13.0683,-5.1681 -3.3259,-3.4495 -4.9827,-8.4198 -4.9827,-14.8984 z m 6.6764,0.0125 c 0,4.9207 1.0757,8.6051 3.227,11.0407 2.1636,2.448 4.8713,3.672 8.1476,3.672 3.2394,0 5.9346,-1.224 8.0983,-3.6842 2.1512,-2.4605 3.2269,-6.2068 3.2269,-11.2388 0,-4.7475 -1.0879,-8.3455 -3.2516,-10.781 -2.1637,-2.448 -4.8591,-3.672 -8.0736,-3.672 -3.2763,0 -5.984,1.2115 -8.1476,3.647 -2.1513,2.4358 -3.227,6.1078 -3.227,11.0163 z m 37.0293,19.2379 v -38.5007 h 5.8603 v 5.4399 c 1.1993,-1.879 2.8066,-3.3998 4.8095,-4.5374 2.003,-1.1497 4.2778,-1.7183 6.8372,-1.7183 2.8437,0 5.1803,0.5933 6.9979,1.7679 1.8176,1.1869 3.1034,2.8313 3.8452,4.9578 3.0662,-4.4881 7.035,-6.7257 11.931,-6.7257 3.8327,0 6.7876,1.0508 8.8399,3.1648 2.0647,2.1144 3.1033,5.366 3.1033,9.7552 v 26.3965 h -6.5279 v -24.2328 c 0,-2.5966 -0.2225,-4.4759 -0.6429,-5.6257 -0.4203,-1.1497 -1.1871,-2.0647 -2.3122,-2.7694 -1.1126,-0.7047 -2.423,-1.0508 -3.9192,-1.0508 -2.7201,0 -4.9702,0.9025 -6.7629,2.6952 -1.7929,1.8051 -2.683,4.6859 -2.683,8.6422 v 22.3413 h -6.5281 v -24.9871 c 0,-2.8931 -0.5315,-5.0692 -1.5948,-6.5157 -1.0633,-1.4466 -2.8066,-2.1759 -5.2175,-2.1759 -1.83,0 -3.5237,0.4822 -5.0816,1.4465 -1.5577,0.9644 -2.6827,2.3737 -3.3877,4.2406 -0.6922,1.8547 -1.0384,4.5377 -1.0384,8.0365 v 19.9551 z"
       style="fill:#069b49;fill-rule:evenodd"
       id="path1091" />
    <path
       d="m 528.694,307.4243 c 0,-0.0459 0,0.1378 0,0.2296 z m 65.3061,79.9439 v -162 H 442.1634 c 0.1632,0.8265 4.2449,5.0051 5.0612,5.8316 1.9592,1.9286 3.4286,3.6735 5.3878,5.6021 l 5.551,5.9694 c 0,0 0.1632,0.0918 0.1632,0.1377 l 24.9796,26.6786 c 1.4694,1.9286 1.796,1.2857 6.8572,1.2857 2.1224,-0.0459 3.4285,0.1837 5.3877,0.2755 2.7755,0.1378 6.8572,1.0561 9.1429,1.7449 5.3877,1.5612 10.2857,4.3623 14.0408,8.2653 0.4898,0.597 0.6531,0.7806 1.1429,1.3776 5.0612,6.1071 7.6734,14.0051 8.3265,21.9949 0.3265,3.3979 0.8163,6.7959 0.8163,10.3775 l 0.3265,-42.6581 h 13.2245 c -0.1632,-0.1837 -0.1632,-0.1378 -0.4898,-0.3674 l -2.2857,-1.0561 c -6.6938,-3.9949 -11.4285,-11.3878 -9.6326,-20.1582 0.9796,-4.7755 3.4285,-8.1275 6.6939,-10.7908 8,-6.4745 18.7755,-6.2449 26.6122,0.8265 2.7755,2.5715 4.7347,5.8776 5.551,9.8266 1.4694,6.6581 -1.3061,13.8214 -5.551,17.3571 -2.449,2.1123 -1.9592,1.9286 -5.2245,3.5357 l -1.3061,0.8266 h 13.2245 v 86.7397 c -0.1633,4.3623 0.3265,3.6735 2.6122,5.9694 l 5.7143,6.1072 c 0.1633,0.0459 0.1633,0.0918 0.1633,0.1377 l 0.3265,0.3215 c 0,0.0459 0,0.0918 0.1633,0.1377 z"
       style="fill:#069b49;fill-rule:evenodd"
       id="path1093" />
    <path
       d="m 69.7552,280.1029 h 0.4898 c 1.1429,4.6378 9.4694,34.7143 9.6327,36.5051 H 59.6328 c 1.7959,-7.9898 6.3673,-23.0969 8.8163,-31.8214 z m -51.7551,77.7857 h 32.3266 c 0.1632,-1.8367 4.8979,-19.5153 5.0612,-21.6275 h 29.0612 l 5.0612,21.6275 h 32.3266 c -0.1633,-1.699 -10.2858,-35.6326 -11.4286,-39.2602 l -5.7143,-19.5153 c -0.6531,-2.2959 -1.1429,-4.1786 -1.9592,-6.5204 -1.1428,-4.4541 -2.449,-8.6786 -3.7551,-12.9949 L 95.2246,266.557 c -0.4898,-1.1939 -3.7551,-12.3061 -3.7551,-13.4082 H 50.0001 l -3.9183,12.9031 c -1.3062,4.3163 -2.449,8.7245 -4.0817,13.1326 -0.653,2.2041 -1.1428,4.2245 -1.9592,6.4286 l -9.9591,32.9235 c -2.2858,7.852 -5.8776,18.1377 -8.1633,26.2194 -0.3265,1.2857 -0.4898,1.9744 -0.9796,3.2142 z"
       style="fill:#069b49;fill-rule:evenodd"
       id="path1095" />
    <path
       d="m 382.5715,319.1335 c 0,-5.3724 0.1633,-10.0561 1.1429,-15.0153 1.9592,-9.2296 2.9388,-7.9898 13.3878,-7.9898 3.102,0 4.8979,0.5051 7.0204,0.551 v 37.6072 c -6.0409,1.4234 -15.5102,3.5816 -19.4286,-3.4898 -1.6327,-2.8929 -2.1225,-7.301 -2.1225,-11.6633 z m 21.5511,-57.5357 c 0,5.4643 0.3265,9.9643 0.3265,15.4286 -1.9592,0 -6.6939,-1.1021 -12.898,-1.1021 -6.8571,0 -20.7347,1.7908 -26.4489,4.8215 -2.1225,1.1938 -3.7551,3.2142 -5.2245,5.1887 -6.0408,9.0919 -8.3266,20.5715 -8.3266,34.898 0,4.0408 0.3266,7.5765 0.9796,11.4337 0.1633,1.0561 0.4898,2.3877 0.6531,3.4438 1.6326,8.0817 6.5306,15.6582 13.3877,19.8368 9.3062,5.5561 21.8776,4.8673 31.347,-0.8266 2.9388,-1.8367 5.2245,-4.2244 7.3469,-6.9796 0.6531,-0.9183 1.1429,-2.204 1.9592,-2.7551 0,1.8827 0.8163,4.8674 1.1429,6.5205 0.3265,2.204 0.653,4.3163 1.1428,6.3826 h 24.8163 V 252.0468 h -30.204 z"
       style="fill:#069b49;fill-rule:evenodd"
       id="path1097" />
    <path
       d="m 287.3879,290.8019 c -0.4898,-2.25 -1.1429,-4.5 -1.6327,-6.75 l -1.3061,-5.1888 c -0.1633,-0.7806 0,-1.2857 -0.9796,-1.2857 h -23.0204 c -0.6531,0 -0.8163,0.2296 -0.8163,0.8724 v 78.6123 c 0,0.6428 0.1632,0.8265 0.8163,0.8265 h 29.2245 v -54.4592 c 0,-2.2041 18.7755,-5.4183 20.4082,-0.6887 0.3265,0.8265 0.4897,1.6989 0.4897,2.6632 v 52.4847 h 30.0409 v -49.6837 c 0,-6.8418 -0.3266,-20.801 -2.7755,-24.8418 -1.4694,-2.5255 -5.0613,-4.5459 -8.1633,-5.5102 -12.0816,-3.9949 -23.5102,-1.8827 -33.4694,4.8214 -2.2857,1.5612 -4.0816,3.3521 -6.0408,5.2347 -1.1429,1.2398 -1.9592,2.3419 -2.7755,2.8929 z"
       style="fill:#069b49;fill-rule:evenodd"
       id="path1099" />
    <path
       d="m 216.2042,310.4549 h -15.1837 c 0,-3.5816 0.4898,-7.9898 1.1429,-11.0663 0.3265,-2.2041 0.8163,-2.3877 2.7755,-3.1224 3.4286,-1.3317 9.7959,-2.0204 13.0612,0.8724 3.5919,3.0765 3.5919,8.3112 3.5919,13.0408 -2.1225,0 -3.1021,0.2755 -5.3878,0.2755 z m 31.3469,43.2092 -1.4693,-8.7245 c -0.3266,-2.2041 -1.1429,-7.3469 -1.1429,-9.2296 -3.9184,0 -7.5102,0.3674 -11.4286,0.5511 -1.3061,0.0918 -1.3061,0.2755 -2.6122,0.2755 -6.3674,0.1836 -18.2857,0.9643 -23.5102,-1.4694 -4.4082,-2.0204 -5.7143,-5.3266 -5.7143,-10.6072 l 38.2041,-0.2755 c 1.4694,0 1.6326,-0.2755 3.102,-0.2755 l 6.5306,-0.2755 c 0,-7.9439 -0.1632,-14.051 -1.4694,-21.6275 -1.6326,-9.5051 -3.7551,-13.4541 -9.6326,-19.0102 -4.898,-4.5919 -14.6939,-6.796 -21.8776,-6.796 -6.5306,0 -11.4285,-0.0918 -17.9591,1.4235 -5.7143,1.3776 -14.0409,3.2602 -18.449,7.4847 -3.7551,3.7194 -6.3674,12.5816 -7.6735,18.1378 -0.8163,3.903 -2.1224,13.6836 -1.4694,17.3571 0.6531,5.2347 -0.3265,8.8622 2.6123,16.7602 2.2857,5.9235 5.551,11.0663 10.7755,14.8316 5.0612,3.7653 10.9387,6.0153 18.6122,7.2092 11.2653,1.8367 33.6327,0 44.5714,-5.7398 z"
       style="fill:#069b49;fill-rule:evenodd"
       id="path1101" />
    <path
       d="m 475.3062,310.4549 c 0.3266,-1.5612 0.3266,-7.7602 1.3062,-11.4336 0.653,-3.2143 5.8775,-3.949 8.8163,-3.9949 1.4694,-0.046 3.9184,0.4591 5.3877,1.102 4.7347,2.0663 5.3878,8.5408 5.3878,14.051 -2.1225,0 -3.102,0.2755 -4.898,0.2755 z m -30.0408,7.5766 c 0,12.3061 1.9592,23.3724 9.7959,30.9489 l 4.0817,3.4898 c 4.5714,3.398 10.4489,5.648 16.3265,6.6582 5.7143,1.0102 7.8367,0.4592 10.449,0.8725 l 11.102,-0.4133 c 8.4898,-0.4133 18.9388,-2.847 24.6531,-5.9235 0,-2.25 -2.449,-15.4286 -2.449,-17.9541 -9.1429,0 -30.3673,2.9388 -37.8775,-0.7347 -3.5919,-1.7449 -5.5511,-5.3265 -5.5511,-10.5153 h 22.0408 c 4.7347,0 8.8164,-0.2755 13.2245,-0.2755 4.5715,0 8.8164,-0.551 12.898,-0.551 0,-1.4694 -0.3265,-2.6173 -0.3265,-4.5 0,-1.6071 0.1632,-3.4898 0,-5.051 l -0.8164,-9.2296 c -1.6326,-11.4796 -4.7347,-19.9286 -15.1836,-25.2092 -8.8164,-4.3622 -22.3674,-3.9949 -32.1633,-2.4796 -6.2041,0.9184 -18.1224,4.2704 -21.7143,8.7245 -5.7143,7.3469 -8.4898,22.8674 -8.4898,32.1429 z"
       style="fill:#069b49;fill-rule:evenodd"
       id="path1103" />
    <path
       d="m 129.3471,252.3223 v 105.5663 h 30.0408 V 252.0468 h -11.1021 c -6.6938,0 -12.2449,0.2755 -18.9387,0.2755 z"
       style="fill:#069b49;fill-rule:evenodd"
       id="path1105" />
    <path
       d="m 534.8981,278.4958 m -0.1633,79.3928 0.1633,-79.3928 z m 0,0 h 30.0408 v -79.4388 c 0,-0.6428 -0.1632,-0.8724 -0.8163,-0.8724 h -29.2245 z"
       style="fill:#069b49;fill-rule:evenodd"
       id="path1107" />
    <path
       d="m 535.2246,253.1488 c 0,5.0051 0.6531,7.5765 4.5714,11.1582 10.6123,10.0102 29.8776,-1.699 23.0204,-15.7041 -1.3061,-2.8469 -4.2449,-5.6939 -7.1836,-6.8418 -10.6123,-4.2245 -20.4082,3.8571 -20.4082,11.3877 z"
       style="fill:#069b49;fill-rule:evenodd"
       id="path1109" />
    <path
       d="M 534.8981,278.4958 18.0001,225.3682 Z"
       style="fill:#069b49;fill-rule:evenodd"
       id="path1111" />
    <path
       d="m 528.694,307.6539 c 0,-0.0918 0,-0.2755 0,-0.2296 z"
       style="fill:#069b49;fill-rule:evenodd"
       id="path1113" />
    <path
       d="m 287.334,470.089 c -3.5387,0 -6.1012,-1.1673 -8.1756,-3.5019 2.9286,-5.5619 13.0566,-8.9952 18.6697,-11.7418 -0.122,5.4246 -4.1488,15.2437 -10.4941,15.2437 z m 125.8066,-8.7891 h -1.8304 c -8.0536,0 -6.5893,-40.8557 12.2024,-22.1102 8.4196,8.4458 5.6131,9.2698 -1.2202,16.1363 -1.9524,1.9226 -5.7352,5.9739 -9.1518,5.9739 z m -128.125,-42.7097 c -3.4167,0 -8.1756,-5.3558 -8.1756,-8.7891 0,-4.9438 10.25,-14.6256 15.1309,-14.6256 4.5149,0 4.6369,15.0376 4.6369,15.0376 -0.4881,1.648 -3.5387,3.7079 -5.125,4.9439 -1.2202,1.03 -4.5148,3.4332 -6.4672,3.4332 z m -25.747,-17.5782 c 0,10.2311 -1.7084,13.2524 9.3958,21.5608 6.7113,5.0126 14.7649,9.5444 23.3065,4.1886 2.1965,-1.3733 3.9048,-3.3646 5.8572,-4.6692 0,3.7765 1.2202,9.6131 1.2202,13.4583 l -19.0357,7.2785 c -9.8839,3.9825 -20.744,7.6218 -19.6458,19.7068 0.366,4.6006 1.8303,6.6605 4.2708,9.1325 12.8125,12.9776 41.9762,10.025 50.5179,-10.6431 1.9523,-4.6006 2.5625,-7.4845 2.5625,-13.8017 4.0267,-0.8926 9.7619,-3.7765 13.5446,-4.0512 0,8.1711 -1.2202,29.6633 0.9762,35.2938 l 3.7827,4.9439 8.5417,5.4245 c 2.9286,1.236 8.0536,2.8839 11.2262,2.8839 -3.0506,-4.5319 -4.6369,-6.9351 -4.6369,-14.6256 V 401.63 h 12.2024 v 73.1282 c 0,5.6992 4.7589,9.7504 8.5416,11.879 7.8096,4.3259 11.9584,3.9826 15.4971,5.6992 -0.3661,-3.4332 -4.1489,-4.3945 -4.1489,-11.7417 V 401.63 h 59.0596 c 12.6904,0 4.8809,19.5695 2.1964,24.9254 l -5.8572,9.9564 c -0.9761,1.5106 -0.8541,2.06 -2.6845,2.5406 -0.4881,-1.648 -3.0506,-4.8065 -4.2708,-6.2485 -4.2708,-5.0125 -10.8601,-12.291 -17.3274,-14.351 -5.369,-1.6479 -11.9583,-0.1373 -15.497,3.4333 -11.1042,11.1924 -3.2947,52.254 15.9851,52.254 10.006,0 16.5952,-6.9352 22.8185,-11.1237 l 4.2708,11.5357 c 0.7321,1.9913 1.4643,3.9139 2.0744,5.5619 l 5.9792,18.0588 c 4.5148,16.5483 11.1041,43.465 11.5922,60.8372 0.122,3.4332 0.6101,4.4632 0.6101,7.6218 2.4405,-0.6866 3.7828,-2.8839 5.4911,-4.5319 l 9.8839,-9.9564 c 3.1727,-3.0213 2.3185,-2.9526 1.5864,-7.7591 -1.7084,-11.6044 -4.759,-22.3162 -8.0536,-32.2726 -3.0506,-9.0638 -18.9137,-47.5161 -24.6488,-56.0992 3.6607,-5.5619 13.3006,-14.2137 18.1815,-26.2301 9.3959,-23.0027 -1.7083,-21.0114 -6.4672,-28.1526 h 77.119 v 9.9564 c -1.9524,0.1374 -2.6845,0.6867 -4.1488,0.9613 -17.0833,3.6393 -40.0238,-1.4419 -51.6161,21.0115 -4.2708,8.3085 -2.8065,16.5483 0.3661,24.6507 l 6.4673,12.8404 c 3.4166,5.6992 12.4464,17.3035 17.4494,20.6681 2.4404,-0.206 3.5387,-0.618 6.9553,-0.618 -0.7321,-3.1585 -6.7113,-7.7591 -11.3482,-16.1362 -5.4911,-10.2311 -11.7143,-24.5821 -1.0982,-34.3325 9.2738,-8.4458 23.7946,-9.2698 36.9732,-10.3684 0,14.2823 0,28.496 0,42.7783 0.122,12.3597 16.8393,18.6768 24.6488,18.6768 -2.9286,-4.2572 -4.7589,-6.6605 -4.7589,-13.4583 V 401.63 h 8.7857 V 387.0044 H 321.2566 V 401.63 h 10.006 v 23.4148 c -4.0268,0.8926 -9.7619,3.7765 -13.5446,4.0512 0,-14.145 -0.6102,-24.2387 -5.8572,-33.3025 -2.9286,-5.2186 -15.1309,-17.5782 -22.2083,-17.5782 -14.6429,0 -30.3839,15.1062 -30.3839,22.7967 z"
       style="fill:#069b49;fill-rule:evenodd"
       id="path1115" />
  </g>
</svg>
